<?xml version="1.0" encoding="UTF-8"?>
<svg id="Layer_1" data-name="Layer 1" xmlns="http://www.w3.org/2000/svg" viewBox="0 0 316.12 316.91">
  <defs>
    <style>
      .cls-1 {
        fill: #231f20;
        font-family: Bahnschrift-Bold, Bahnschrift;
        font-size: 32.4px;
        font-variation-settings: 'wght' 700, 'wdth' 100;
        font-weight: 700;
      }
    </style>
  </defs>
  <text class="cls-1" transform="translate(26.8 145.69) rotate(-78.5)"><tspan x="0" y="0">W</tspan></text>
  <text class="cls-1" transform="translate(35.82 109.91) rotate(-64)"><tspan x="0" y="0">E</tspan></text>
  <text class="cls-1" transform="translate(49.35 84.44) rotate(-51.04)"><tspan x="0" y="0">B</tspan></text>
  <text class="cls-1" transform="translate(69.71 61.6) rotate(-40.37)"><tspan x="0" y="0"> </tspan></text>
  <text class="cls-1" transform="translate(83.93 49.93) rotate(-29.6)"><tspan x="0" y="0">D</tspan></text>
  <text class="cls-1" transform="translate(110.95 35.9) rotate(-16.61)"><tspan x="0" y="0">E</tspan></text>
  <text class="cls-1" transform="translate(138.9 28.69) rotate(-4.01)"><tspan x="0" y="0">V</tspan></text>
  <text class="cls-1" transform="translate(167.57 27.71) rotate(8.5)"><tspan x="0" y="0">E</tspan></text>
  <text class="cls-1" transform="translate(195.94 33.04) rotate(21.05)"><tspan x="0" y="0">L</tspan></text>
  <text class="cls-1" transform="translate(221.27 43.7) rotate(33.62)"><tspan x="0" y="0">O</tspan></text>
  <text class="cls-1" transform="translate(245.7 61.25) rotate(46.57)"><tspan x="0" y="0">P</tspan></text>
  <text class="cls-1" transform="translate(265.11 83.29) rotate(59.2)"><tspan x="0" y="0">E</tspan></text>
  <text class="cls-1" transform="translate(279.03 108.56) rotate(72.28)"><tspan x="0" y="0">R</tspan></text>
  <text class="cls-1" transform="translate(286.95 138.28) rotate(83.1)"><tspan x="0" y="0"> </tspan></text>
  <text class="cls-1" transform="translate(288.49 156.85) rotate(91.18)"><tspan x="0" y="0"> </tspan></text>
  <text class="cls-1" transform="translate(287.38 175.46) rotate(99)"><tspan x="0" y="0">.</tspan></text>
  <text class="cls-1" transform="translate(284.05 192.41) rotate(106.92)"><tspan x="0" y="0"> </tspan></text>
  <text class="cls-1" transform="translate(277.95 210) rotate(115.14)"><tspan x="0" y="0"> </tspan></text>
  <text class="cls-1" transform="translate(269.77 226.53) rotate(125.68)"><tspan x="0" y="0">S</tspan></text>
  <text class="cls-1" transform="translate(251.59 249.54) rotate(136.07)"><tspan x="0" y="0">I</tspan></text>
  <text class="cls-1" transform="translate(238 262.25) rotate(147.16)"><tspan x="0" y="0">N</tspan></text>
  <text class="cls-1" transform="translate(210.36 278.58) rotate(160.7)"><tspan x="0" y="0">C</tspan></text>
  <text class="cls-1" transform="translate(182.45 287.24) rotate(173.41)"><tspan x="0" y="0">E</tspan></text>
  <text class="cls-1" transform="translate(153.45 289.22) rotate(-176.3)"><tspan x="0" y="0"> </tspan></text>
  <text class="cls-1" transform="translate(135.04 287.54) rotate(-166.44)"><tspan x="0" y="0">2</tspan></text>
  <text class="cls-1" transform="translate(109.7 280.47) rotate(-154.59)"><tspan x="0" y="0">0</tspan></text>
  <text class="cls-1" transform="translate(85.35 267.74) rotate(-142.8)"><tspan x="0" y="0">2</tspan></text>
  <text class="cls-1" transform="translate(64.96 251.05) rotate(-131.33)"><tspan x="0" y="0">3</tspan></text>
  <text class="cls-1" transform="translate(48.38 230.41) rotate(-121.51)"><tspan x="0" y="0"> </tspan></text>
  <text class="cls-1" transform="translate(39.25 214.17) rotate(-113.32)"><tspan x="0" y="0"> </tspan></text>
  <text class="cls-1" transform="translate(32.55 196.77) rotate(-105.39)"><tspan x="0" y="0">.</tspan></text>
</svg>